<svg id="レイヤー_1" data-name="レイヤー 1" xmlns="http://www.w3.org/2000/svg" viewBox="0 0 495 123"><defs><style>.cls-1{fill:#fff;}</style></defs><title>アートボード 1</title><polygon class="cls-1" points="453 123 0 123 42 0 495 0 453 123"/><path d="M125.61,57.47q2.9-3.28,5.88-3.28a3.48,3.48,0,0,1,2.55.89,2.69,2.69,0,0,1,.91,1.95q0,2.26-2.05,2.26a2.32,2.32,0,0,1-1.95-1.4q-.75-1.3-1.57-1.3-1.3,0-2.87,1.78a10.92,10.92,0,0,1,1.78,5.95,10.3,10.3,0,0,1-2.94,7.25q-2.94,3.18-9.91,3.42-7.25.24-7.25,2.94,0,1.26,1.64,1.78a31.12,31.12,0,0,0,6.77.82,46.83,46.83,0,0,1,8.68,1,8.64,8.64,0,0,1,4.85,3.09,9.16,9.16,0,0,1-1.88,12.82q-3.69,2.77-10.63,2.77-6.36,0-10.19-2.46t-3.83-6.22a5.21,5.21,0,0,1,1.09-3.42,3.79,3.79,0,0,1,3.11-1.33,2.74,2.74,0,0,1,1,.17,7.22,7.22,0,0,0-2.12,4.92,5.87,5.87,0,0,0,2.82,5q2.82,2,8.43,2,5,0,7.78-2a6.06,6.06,0,0,0,2.79-5.11A5.06,5.06,0,0,0,126,86.9q-2.5-1.37-8.89-1.64-7.35-.31-9.54-1.81a4.41,4.41,0,0,1-2.19-3.79q0-4.48,6.25-5.64a14.67,14.67,0,0,1-4.89-4.37,9.7,9.7,0,0,1-1.64-5.5,9.36,9.36,0,0,1,3.37-7.26,11.62,11.62,0,0,1,8-3A12.12,12.12,0,0,1,125.61,57.47Zm-15.38,7.45q0,4.41,1.81,6.46a6.06,6.06,0,0,0,9.07,0q1.86-2,1.86-7.06t-2-7a6.29,6.29,0,0,0-4.48-1.91,5.29,5.29,0,0,0-4.72,2.36Q110.23,60.17,110.23,64.92Z"/><path d="M176.39,64.47H156.88q-.14,2-.14,3,0,7.38,2.31,11.09a7.58,7.58,0,0,0,6.89,3.71,9,9,0,0,0,8.82-5.57h1.64a9.56,9.56,0,0,1-4.34,5.45,13.59,13.59,0,0,1-13.79.17,14.34,14.34,0,0,1-5.18-5.08,14.92,14.92,0,0,1-2-8,16,16,0,0,1,3.9-11,12.48,12.48,0,0,1,9.74-4.39q5.5,0,8.51,3.35A11.45,11.45,0,0,1,176.39,64.47Zm-6-1.37a11,11,0,0,0,.1-1.4,5.87,5.87,0,0,0-6.08-6.32q-6.22,0-7.42,7.72Z"/><path d="M194.87,83V81.94l18.56-25.36H203.24a9,9,0,0,0-2.65.26,4.36,4.36,0,0,0-1.67,1.64,17.68,17.68,0,0,0-2,4.29h-1.27l.45-7.76h23.45v1.23L201.13,81.43h7.66a19.44,19.44,0,0,0,5-.41,5.44,5.44,0,0,0,2.49-2,20,20,0,0,0,2.46-4.9h1.37L219.27,83Z"/><path d="M248.24,53.88V73.4q0,4.48.14,5.64a2.43,2.43,0,0,0,1,1.78,5.46,5.46,0,0,0,3,.62h.72V83H238.06V81.43h1.16q2.43,0,3.16-.7a2.71,2.71,0,0,0,.85-1.67q.12-1,.12-5.66V64.92q0-4.92-.46-6a2.25,2.25,0,0,0-1.23-1.37,9,9,0,0,0-2.68-.27h-.92V55.69a41.82,41.82,0,0,0,9.43-1.81Zm-6.6-14.29a3.48,3.48,0,0,1,1-2.53A3.4,3.4,0,0,1,245.2,36a3.34,3.34,0,0,1,2.49,1.06,3.51,3.51,0,0,1,1,2.53,3.55,3.55,0,0,1-1,2.56,3.34,3.34,0,0,1-2.49,1.06,3.4,3.4,0,0,1-2.51-1.06A3.52,3.52,0,0,1,241.65,39.59Z"/><path d="M293.83,76.16h1.5q-2.32,8-11.62,8a13.7,13.7,0,0,1-10.07-4.07q-4.09-4.07-4.08-10.77A14.82,14.82,0,0,1,274,58.15a14.48,14.48,0,0,1,10.42-4.27,14.18,14.18,0,0,1,6.67,1.59q3,1.59,3,3.88a2.63,2.63,0,0,1-.56,1.61,1.91,1.91,0,0,1-1.62.75q-2.26,0-2.77-2.63a5.15,5.15,0,0,0-1.26-2.77q-.89-.79-3.45-.79a8,8,0,0,0-6.89,3.18q-2.31,3.18-2.31,9.57,0,6.6,2.48,10.32a8.4,8.4,0,0,0,7.5,3.73Q292,82.32,293.83,76.16Z"/><path d="M321.6,59.62a14.44,14.44,0,0,1,4.6-4.31,11.18,11.18,0,0,1,5.59-1.44,10.54,10.54,0,0,1,5.72,1.44,6.64,6.64,0,0,1,3,3.54,24.25,24.25,0,0,1,.68,6.82V73.4a52.08,52.08,0,0,0,.19,6,2.09,2.09,0,0,0,1.11,1.56,8,8,0,0,0,3.42.5V83H331.41V81.43h.65q2.49,0,3.23-.72a2.79,2.79,0,0,0,.85-1.69q.12-1,.12-5.62V65a23.63,23.63,0,0,0-.41-5.16,4.74,4.74,0,0,0-1.93-2.77A6.37,6.37,0,0,0,330.11,56a7.89,7.89,0,0,0-4.79,1.56,13.1,13.1,0,0,0-3.73,4.67V73.4q0,4.72.15,5.81a2.23,2.23,0,0,0,1,1.66,6.55,6.55,0,0,0,3.25.56V83H311.83V81.43h.72q2.46,0,3.2-.7a2.72,2.72,0,0,0,.85-1.67q.12-1,.12-5.66V45.5q0-4.24-.8-5.37T312.07,39V37.44A23.49,23.49,0,0,0,320.88,36h.72Z"/><path d="M379.18,56.58h-8.44V73.5a25.74,25.74,0,0,0,.34,5.25,3.77,3.77,0,0,0,1.45,2.17,3.93,3.93,0,0,0,2.38.82q2.46,0,4.27-2.8l1.09.65a7.33,7.33,0,0,1-3.13,3.4A8.57,8.57,0,0,1,373,84.13a6.83,6.83,0,0,1-4.32-1.45,6.08,6.08,0,0,1-2.32-3.4,34.23,34.23,0,0,1-.46-6.84V56.58h-4.07V55a7.09,7.09,0,0,0,5-2.36,11.36,11.36,0,0,0,2.84-6.43h1.09V55h8.44Z"/></svg>